<svg width="1200" height="700" viewBox="0 0 1200 700" fill="none" xmlns="http://www.w3.org/2000/svg">
  <rect width="1200" height="700" rx="36" fill="url(#bg)"/>
  <circle cx="1080" cy="150" r="180" fill="url(#glow1)" fill-opacity="0.5"/>
  <circle cx="100" cy="590" r="190" fill="url(#glow2)" fill-opacity="0.55"/>
  <rect x="88" y="92" width="1024" height="516" rx="28" fill="#171256" fill-opacity="0.72" stroke="#3B3670" stroke-width="2"/>

  <text x="136" y="166" fill="#F5F3FF" font-family="Arial, Helvetica, sans-serif" font-size="40" font-weight="700">
    Agentic AI Workflow Prototypes
  </text>
  <text x="136" y="206" fill="#D8F24C" font-family="Arial, Helvetica, sans-serif" font-size="23" font-weight="600">
    Multi-Step LLM Automation with LangChain, CrewAI &amp; n8n
  </text>

  <rect x="136" y="250" width="270" height="82" rx="16" fill="#372FE0" fill-opacity="0.35" stroke="#8B85F0"/>
  <text x="164" y="300" fill="#EDE9FE" font-family="Arial, Helvetica, sans-serif" font-size="24" font-weight="700">
    5+ Workflows
  </text>

  <rect x="430" y="250" width="240" height="82" rx="16" fill="#D8F24C" fill-opacity="0.22" stroke="#D8F24C"/>
  <text x="458" y="300" fill="#F3FBC9" font-family="Arial, Helvetica, sans-serif" font-size="24" font-weight="700">
    CrewAI
  </text>

  <rect x="694" y="250" width="270" height="82" rx="16" fill="#372FE0" fill-opacity="0.35" stroke="#8B85F0"/>
  <text x="722" y="300" fill="#EDE9FE" font-family="Arial, Helvetica, sans-serif" font-size="24" font-weight="700">
    RAG Design
  </text>

  <g stroke="#D8F24C" stroke-width="4" stroke-linecap="round" fill="none">
    <path d="M180 356 h180 a14 14 0 0 1 14 14 v40"/>
    <path d="M540 356 h-180 a14 14 0 0 0 -14 14 v40"/>
    <path d="M540 356 h180 a14 14 0 0 1 14 14 v40"/>
    <path d="M900 356 h-180 a14 14 0 0 0 -14 14 v40"/>
  </g>
  <circle cx="180" cy="356" r="8" fill="#D8F24C"/>
  <circle cx="540" cy="356" r="8" fill="#D8F24C"/>
  <circle cx="900" cy="356" r="8" fill="#D8F24C"/>

  <rect x="136" y="420" width="928" height="122" rx="22" fill="#0F0B33" stroke="#3B3670"/>
  <text x="176" y="466" fill="#F8FAFC" font-family="Arial, Helvetica, sans-serif" font-size="26" font-weight="700">
    Document Processing · Summarization · Decision Routing
  </text>
  <text x="176" y="500" fill="#B7B2E8" font-family="Arial, Helvetica, sans-serif" font-size="20">
    LangChain · CrewAI · n8n · OpenAI · HuggingFace
  </text>

  <defs>
    <linearGradient id="bg" x1="0" y1="0" x2="1200" y2="700" gradientUnits="userSpaceOnUse">
      <stop stop-color="#171256"/>
      <stop offset="1" stop-color="#0B0824"/>
    </linearGradient>
    <radialGradient id="glow1" cx="0" cy="0" r="1" gradientUnits="userSpaceOnUse" gradientTransform="translate(1080 150) rotate(90) scale(180)">
      <stop stop-color="#372FE0"/>
      <stop offset="1" stop-color="#372FE0" stop-opacity="0"/>
    </radialGradient>
    <radialGradient id="glow2" cx="0" cy="0" r="1" gradientUnits="userSpaceOnUse" gradientTransform="translate(100 590) rotate(90) scale(190)">
      <stop stop-color="#D8F24C"/>
      <stop offset="1" stop-color="#D8F24C" stop-opacity="0"/>
    </radialGradient>
  </defs>
</svg>
