<svg width="1200" height="700" viewBox="0 0 1200 700" fill="none" xmlns="http://www.w3.org/2000/svg">
  <rect width="1200" height="700" rx="36" fill="url(#bg)"/>
  <circle cx="230" cy="200" r="130" fill="url(#glow1)" fill-opacity="0.55"/>
  <circle cx="950" cy="520" r="170" fill="url(#glow2)" fill-opacity="0.5"/>
  <rect x="86" y="94" width="1028" height="512" rx="28" fill="#171256" fill-opacity="0.72" stroke="#3B3670" stroke-width="2"/>

  <text x="134" y="170" fill="#F5F3FF" font-family="Arial, Helvetica, sans-serif" font-size="46" font-weight="700">
    NeuroXAI
  </text>
  <text x="134" y="214" fill="#D8F24C" font-family="Arial, Helvetica, sans-serif" font-size="24" font-weight="600">
    Explainable Brain Tumor Detection
  </text>

  <rect x="134" y="264" width="402" height="64" rx="14" fill="#372FE0" fill-opacity="0.35" stroke="#8B85F0"/>
  <text x="160" y="306" fill="#EDE9FE" font-family="Arial, Helvetica, sans-serif" font-size="26" font-weight="700">
    7,023 MRI Images
  </text>

  <rect x="134" y="348" width="402" height="64" rx="14" fill="#D8F24C" fill-opacity="0.22" stroke="#D8F24C"/>
  <text x="160" y="390" fill="#F3FBC9" font-family="Arial, Helvetica, sans-serif" font-size="26" font-weight="700">
    99% Validation Accuracy
  </text>

  <rect x="134" y="432" width="402" height="64" rx="14" fill="#372FE0" fill-opacity="0.35" stroke="#8B85F0"/>
  <text x="160" y="474" fill="#EDE9FE" font-family="Arial, Helvetica, sans-serif" font-size="26" font-weight="700">
    22% Fewer False Positives
  </text>

  <g opacity="0.95">
    <rect x="644" y="246" width="412" height="250" rx="22" fill="#0F0B33" stroke="#3B3670"/>
    <path d="M692 452C741 366 784 330 822 360C858 388 905 390 962 312C998 271 1028 257 1052 264"
      stroke="#D8F24C" stroke-width="8" stroke-linecap="round"/>
    <circle cx="822" cy="360" r="10" fill="#D8F24C"/>
    <circle cx="962" cy="312" r="10" fill="#D8F24C"/>
    <circle cx="1052" cy="264" r="10" fill="#D8F24C"/>
    <text x="672" y="522" fill="#B7B2E8" font-family="Arial, Helvetica, sans-serif" font-size="18">
      PyTorch CNN · Grad-CAM · SHAP
    </text>
  </g>

  <defs>
    <linearGradient id="bg" x1="0" y1="0" x2="1200" y2="700" gradientUnits="userSpaceOnUse">
      <stop stop-color="#171256"/>
      <stop offset="1" stop-color="#0B0824"/>
    </linearGradient>
    <radialGradient id="glow1" cx="0" cy="0" r="1" gradientUnits="userSpaceOnUse" gradientTransform="translate(230 200) rotate(90) scale(130)">
      <stop stop-color="#372FE0"/>
      <stop offset="1" stop-color="#372FE0" stop-opacity="0"/>
    </radialGradient>
    <radialGradient id="glow2" cx="0" cy="0" r="1" gradientUnits="userSpaceOnUse" gradientTransform="translate(950 520) rotate(90) scale(170)">
      <stop stop-color="#D8F24C"/>
      <stop offset="1" stop-color="#D8F24C" stop-opacity="0"/>
    </radialGradient>
  </defs>
</svg>
