<svg width="1200" height="700" viewBox="0 0 1200 700" fill="none" xmlns="http://www.w3.org/2000/svg">
  <rect width="1200" height="700" rx="36" fill="url(#bg)"/>
  <rect x="88" y="92" width="1024" height="516" rx="28" fill="#0F172A" fill-opacity="0.78" stroke="#334155" stroke-width="2"/>

  <text x="136" y="168" fill="#E2E8F0" font-family="Arial, Helvetica, sans-serif" font-size="44" font-weight="700">
    Sentinet AI
  </text>
  <text x="136" y="208" fill="#BFDBFE" font-family="Arial, Helvetica, sans-serif" font-size="24">
    Multi-Channel Product Intelligence Platform
  </text>

  <rect x="136" y="256" width="274" height="84" rx="14" fill="#1D4ED8" fill-opacity="0.32" stroke="#60A5FA"/>
  <text x="170" y="306" fill="#EFF6FF" font-family="Arial, Helvetica, sans-serif" font-size="24" font-weight="700">Jira</text>
  <rect x="452" y="256" width="274" height="84" rx="14" fill="#0F766E" fill-opacity="0.3" stroke="#22D3EE"/>
  <text x="486" y="306" fill="#ECFEFF" font-family="Arial, Helvetica, sans-serif" font-size="24" font-weight="700">Slack</text>
  <rect x="768" y="256" width="274" height="84" rx="14" fill="#7C3AED" fill-opacity="0.3" stroke="#C084FC"/>
  <text x="802" y="306" fill="#F3E8FF" font-family="Arial, Helvetica, sans-serif" font-size="24" font-weight="700">CSV</text>

  <rect x="310" y="390" width="580" height="128" rx="18" fill="#111827" stroke="#475569"/>
  <text x="356" y="446" fill="#A5F3FC" font-family="Arial, Helvetica, sans-serif" font-size="28" font-weight="700">
    Go Microservices + Ranking Engine
  </text>
  <text x="356" y="484" fill="#CBD5E1" font-family="Arial, Helvetica, sans-serif" font-size="22">
    Frequency + Recency + Sentiment + Account Tier
  </text>

  <path d="M273 340L515 392" stroke="#67E8F9" stroke-width="5" stroke-linecap="round"/>
  <path d="M589 340L589 392" stroke="#67E8F9" stroke-width="5" stroke-linecap="round"/>
  <path d="M905 340L663 392" stroke="#67E8F9" stroke-width="5" stroke-linecap="round"/>

  <defs>
    <linearGradient id="bg" x1="0" y1="0" x2="1200" y2="700" gradientUnits="userSpaceOnUse">
      <stop stop-color="#0B1120"/>
      <stop offset="1" stop-color="#020617"/>
    </linearGradient>
  </defs>
</svg>
